<svg width="120" height="120" viewBox="0 0 120 120" fill="none" xmlns="http://www.w3.org/2000/svg">
<path d="M102.985 60.4415L116.902 63.2625L114.774 73.7691L100.857 70.9481L101.135 69.576L113.837 72.1506L115.409 64.3883L102.707 61.8137L102.985 60.4415Z" fill="black"/>
<path d="M96.5432 81.0761C96.9577 80.455 97.459 79.9561 98.0472 79.5793C98.6464 79.2099 99.2807 78.9681 99.95 78.8539C100.63 78.7471 101.316 78.7642 102.008 78.9053C102.692 79.0574 103.344 79.3408 103.965 79.7554C104.774 80.296 105.395 80.9751 105.827 81.7928C106.252 82.6215 106.446 83.4964 106.408 84.4172C106.382 85.3455 106.091 86.2256 105.536 87.0573C104.966 87.9113 104.265 88.5173 103.433 88.8755C102.593 89.2447 101.713 89.3865 100.792 89.3008C99.8827 89.2225 99.0288 88.9167 98.2304 88.3836C98.1417 88.3244 98.053 88.2651 97.9643 88.2059C97.8867 88.1541 97.8294 88.1078 97.7925 88.0671L102.744 80.6478C102.086 80.2885 101.417 80.0902 100.737 80.0527C100.06 80.0338 99.4223 80.1609 98.8231 80.4342C98.2277 80.7259 97.7449 81.1491 97.3748 81.7036C96.9973 82.2692 96.7862 82.8978 96.7414 83.5893C96.6892 84.292 96.8293 84.8987 97.1618 85.4093L96.2406 86.213C95.9488 85.7616 95.7587 85.2419 95.6703 84.6537C95.5819 84.0656 95.61 83.4591 95.7546 82.8341C95.9029 82.2277 96.1657 81.6417 96.5432 81.0761ZM103.581 81.1587L99.3069 87.5633C99.9685 87.941 100.638 88.1394 101.314 88.1583C101.984 88.1884 102.61 88.0538 103.195 87.7547C103.783 87.474 104.266 87.0509 104.643 86.4853C105.021 85.9197 105.226 85.3114 105.26 84.6605C105.305 84.017 105.183 83.3827 104.895 82.7574C104.611 82.1507 104.173 81.6178 103.581 81.1587Z" fill="black"/>
<path d="M85.9181 93.3567C86.6262 92.8571 87.3942 92.5927 88.222 92.5635C89.0388 92.542 89.8028 92.6884 90.5138 93.0026L86.8142 87.7557L87.9255 86.9717L96.3849 98.9693L95.388 99.6726L94.224 98.0217C94.2628 98.7939 94.1141 99.5433 93.7781 100.27C93.4497 101.007 92.9642 101.603 92.3214 102.056C91.7331 102.471 91.1054 102.727 90.4384 102.822C89.7791 102.928 89.1237 102.901 88.4722 102.74C87.8207 102.58 87.2087 102.302 86.6361 101.906C86.0603 101.529 85.5726 101.058 85.1731 100.491C84.6122 99.6955 84.257 98.8446 84.1075 97.9384C83.9547 97.0508 84.0249 96.2017 84.3181 95.3912C84.6112 94.5806 85.1445 93.9024 85.9181 93.3567ZM86.9201 94.1184C86.4516 94.4489 86.0975 94.8374 85.8577 95.284C85.6255 95.7415 85.494 96.2259 85.463 96.7373C85.4211 97.2564 85.4715 97.7675 85.6142 98.2706C85.7645 98.7846 85.9934 99.2595 86.3007 99.6954C86.6234 100.153 87.0124 100.531 87.4678 100.83C87.9123 101.137 88.3931 101.344 88.91 101.453C89.427 101.561 89.9415 101.573 90.4534 101.49C90.9654 101.406 91.4447 101.206 91.8914 100.891C92.1746 100.691 92.4304 100.429 92.6586 100.105C92.8868 99.781 93.0696 99.4154 93.2068 99.0085C93.3409 98.6202 93.4122 98.2354 93.4207 97.8541C93.4292 97.4728 93.3553 97.1252 93.1991 96.8111L91.3551 94.1958C90.8965 93.9156 90.4049 93.7158 89.8802 93.5965C89.3633 93.488 88.845 93.4702 88.3253 93.5431C87.8025 93.6345 87.3341 93.8263 86.9201 94.1184Z" fill="black"/>
<path d="M72.783 100.434C73.508 100.255 74.2146 100.225 74.903 100.343C75.5946 100.475 76.226 100.724 76.7972 101.091C77.3716 101.471 77.8665 101.947 78.2818 102.517C78.6842 103.091 78.9748 103.74 79.1535 104.465C79.3866 105.41 79.3869 106.33 79.1544 107.225C78.909 108.123 78.4619 108.9 77.8131 109.554C77.1675 110.222 76.3592 110.675 75.3883 110.915C74.3916 111.161 73.4652 111.135 72.6092 110.838C71.7403 110.545 70.9948 110.056 70.3729 109.371C69.7542 108.7 69.3299 107.898 69.1 106.966C69.0745 106.863 69.0489 106.759 69.0234 106.656C69.001 106.565 68.99 106.492 68.9901 106.437L77.6504 104.3C77.4069 103.591 77.0466 102.994 76.5696 102.507C76.0828 102.037 75.526 101.7 74.8993 101.498C74.2629 101.311 73.621 101.298 72.9738 101.458C72.3136 101.621 71.7337 101.942 71.2342 102.423C70.7217 102.906 70.416 103.449 70.3171 104.05L69.0948 104.022C69.1838 103.492 69.3941 102.98 69.7255 102.486C70.0569 101.992 70.4867 101.563 71.015 101.2C71.5335 100.852 72.1228 100.597 72.783 100.434ZM77.9239 105.242L70.4481 107.087C70.6818 107.812 71.0421 108.41 71.5289 108.88C72.0027 109.354 72.5563 109.677 73.1896 109.851C73.8131 110.04 74.4549 110.053 75.1151 109.89C75.7753 109.728 76.3373 109.417 76.8012 108.959C77.2683 108.515 77.6064 107.964 77.8154 107.308C78.0147 106.669 78.0509 105.98 77.9239 105.242Z" fill="black"/>
<path d="M61.5755 102.936L60.6128 113.311L54.4194 112.736L54.5321 111.522L59.3713 111.971L60.2213 102.81L61.5755 102.936Z" fill="black"/>
<path d="M49.8329 102.208L49.3204 103.337C48.9926 103.188 48.6627 103.141 48.3306 103.195C47.993 103.261 47.6306 103.463 47.2435 103.8C46.8442 104.131 46.4158 104.639 45.9582 105.325C45.4951 106.022 44.9835 106.94 44.4235 108.076L43.1155 110.667L36.9607 107.872L41.2679 98.3836L42.5061 98.946L38.7032 107.323L42.5272 109.06L43.3077 107.438C43.9515 106.149 44.5535 105.097 45.1136 104.282C45.6682 103.48 46.207 102.89 46.7298 102.512C47.2405 102.129 47.7518 101.922 48.2638 101.891C48.7757 101.86 49.2988 101.966 49.8329 102.208Z" fill="black"/>
<path d="M35.5357 95.8201L30.3446 96.716C30.7771 97.285 30.9747 97.9045 30.9373 98.5746C30.881 99.245 30.5417 99.9006 29.9194 100.542C29.5014 100.972 29.0294 101.257 28.5035 101.397C27.9776 101.536 27.4354 101.53 26.877 101.378C26.3089 101.216 25.7763 100.894 25.279 100.411L22.4246 97.6374L29.6976 90.1477L30.673 91.0954L27.8585 93.9937L29.5225 95.6104L34.4455 94.7609L35.5357 95.8201ZM29.0274 96.5795L27.134 94.7398L24.1524 97.8104L25.8736 99.4828C26.3709 99.966 26.9071 100.208 27.4822 100.209C28.048 100.22 28.5399 100.01 28.9579 99.5794C29.3852 99.1394 29.6279 98.6502 29.6861 98.1119C29.7347 97.5642 29.5151 97.0534 29.0274 96.5795Z" fill="black"/>
<path d="M24.7117 85.2525L15.3398 89.8072L14.7456 88.5838L18.775 86.6256L16.171 81.2645L12.1417 83.2228L11.5475 81.9995L20.9193 77.4447L21.5135 78.6681L17.2683 80.7312L19.8723 86.0923L24.1175 84.0291L24.7117 85.2525Z" fill="black"/>
<path d="M22.4115 69.7751C22.435 70.0005 22.4195 70.2367 22.3649 70.4837C22.3221 70.7161 22.2469 70.9586 22.1392 71.2111L21.1324 70.8136C21.1968 70.6594 21.2492 70.5199 21.2898 70.395C21.329 70.2568 21.341 70.1148 21.3258 69.969C21.2897 69.6242 21.0834 69.3173 20.7068 69.0483C20.3301 68.7793 19.7957 68.5402 19.1036 68.331L17.7566 67.949L7.95461 73.6386L7.80502 72.2064L16.3794 67.4695L7.04257 64.9061L6.9013 63.5534L19.4112 67.2331C20.0622 67.4332 20.6018 67.6583 21.0301 67.9085C21.4584 68.1587 21.7827 68.4398 22.003 68.752C22.2365 69.0627 22.3727 69.4037 22.4115 69.7751Z" fill="black"/>
<path d="M17.4871 54.1368L8.53027 52.0355L7.68061 55.6572L6.49286 55.3785L8.5028 46.8111L9.69055 47.0898L8.8409 50.7115L17.7977 52.8128L17.4871 54.1368Z" fill="black"/>
<path d="M19.8805 43.4801L11.148 37.8318L11.8863 36.6897L19.0738 41.3387L15.3114 31.3544L15.9737 30.3299L24.723 35.989L23.9847 37.1312L16.9147 32.5582L20.5971 42.3716L19.8805 43.4801Z" fill="black"/>
<path d="M36.5873 23.7427L32.5292 14.1454L37.3182 12.1192C37.8585 11.8907 38.3621 11.8151 38.8292 11.8926C39.291 11.9578 39.6894 12.1295 40.0241 12.4077C40.3712 12.6807 40.6304 13.0198 40.8018 13.4251C41.0199 13.9409 41.0944 14.4595 41.0254 14.9809C40.9511 15.4901 40.7248 15.9478 40.3465 16.354C40.9666 16.2798 41.5368 16.3788 42.0572 16.6509C42.5776 16.9229 42.9624 17.3537 43.2116 17.9432C43.4297 18.4589 43.4903 18.9617 43.3934 19.4515C43.3088 19.9361 43.0896 20.3764 42.7358 20.7722C42.3943 21.1628 41.9411 21.4776 41.3763 21.7165L36.5873 23.7427ZM37.4029 22.3335L40.9578 20.8295C41.2771 20.6944 41.5319 20.4925 41.7222 20.2238C41.9197 19.9375 42.035 19.6282 42.0681 19.2956C42.1135 18.9579 42.0739 18.6417 41.9492 18.347C41.8142 18.0277 41.6185 17.7703 41.3621 17.5747C41.1005 17.3669 40.8132 17.2351 40.5001 17.1794C40.187 17.1236 39.8708 17.1633 39.5515 17.2984L35.9229 18.8336L37.4029 22.3335ZM35.5568 17.9678L38.8171 16.5884C39.1363 16.4534 39.3824 16.2479 39.5553 15.9721C39.7282 15.6962 39.8251 15.3946 39.8459 15.0673C39.8667 14.74 39.8148 14.429 39.6902 14.1342C39.5033 13.6921 39.1923 13.3676 38.7574 13.1608C38.3348 12.9487 37.8963 12.9387 37.442 13.131L34.1081 14.5415L35.5568 17.9678Z" fill="black"/>
<path d="M50.6229 18.3454L49.5007 7.98604L50.8528 7.83948L51.975 18.1989L50.6229 18.3454ZM49.2659 5.81872L49.0505 3.83035L50.4026 3.6838L50.618 5.67216L49.2659 5.81872Z" fill="black"/>
<path d="M58.9828 19.1273L59.6782 15.5543L59.8549 15.5887C60.1559 15.6473 60.4486 15.6093 60.7329 15.4745C61.0172 15.3397 61.3021 15.0623 61.5876 14.6425C61.8731 14.2227 62.1524 13.625 62.4256 12.8496C62.7013 12.0611 62.9785 11.0556 63.2572 9.83298L63.9095 7.00552L70.5644 8.30163L68.8067 17.3322L70.1809 17.5998L69.4854 21.1727L68.2879 20.9395L68.7503 18.5641L60.623 16.9812L60.1606 19.3567L58.9828 19.1273ZM61.8769 15.9825L67.4718 17.0722L68.9964 9.23917L64.8739 8.43627L64.4711 10.1916C64.1949 11.4012 63.9111 12.4054 63.6198 13.2045C63.344 13.993 63.0609 14.6102 62.7703 15.0562C62.4954 15.4917 62.1976 15.8005 61.8769 15.9825Z" fill="black"/>
<path d="M79.3131 22.4875C78.6788 22.0935 78.1637 21.6088 77.7677 21.0332C77.3787 20.4463 77.1161 19.8202 76.9798 19.1548C76.8506 18.4782 76.845 17.7919 76.963 17.0961C77.0924 16.4074 77.3539 15.7458 77.7477 15.1114C78.261 14.2844 78.919 13.6415 79.7218 13.1826C80.5358 12.7308 81.4035 12.5085 82.3249 12.5157C83.2534 12.5116 84.1423 12.7733 84.9918 13.3009C85.864 13.8426 86.4928 14.5235 86.8782 15.3437C87.275 16.1708 87.4458 17.046 87.3906 17.9692C87.3425 18.881 87.0653 19.7448 86.559 20.5604C86.5027 20.651 86.4465 20.7417 86.3902 20.8323C86.341 20.9116 86.2967 20.9704 86.2572 21.0087L78.6797 16.3024C78.3426 16.972 78.1666 17.6474 78.1517 18.3288C78.1551 19.0059 78.3033 19.6394 78.5962 20.2294C78.9074 20.8151 79.3462 21.2838 79.9125 21.6355C80.4902 21.9943 81.1253 22.1847 81.8178 22.2067C82.5216 22.2358 83.1232 22.0757 83.6224 21.7266L84.456 22.621C84.0146 22.9276 83.5016 23.1348 82.9168 23.2425C82.3321 23.3502 81.7251 23.342 81.0959 23.2181C80.485 23.0898 79.8908 22.8463 79.3131 22.4875ZM79.1626 15.4487L85.7037 19.5112C86.0592 18.8374 86.2352 18.1619 86.2318 17.4849C86.2396 16.8148 86.0844 16.1926 85.7662 15.6183C85.4662 15.0396 85.0274 14.5709 84.4498 14.2121C83.8721 13.8533 83.2576 13.6678 82.606 13.6556C81.9616 13.632 81.3317 13.7745 80.7165 14.083C80.1197 14.3872 79.6017 14.8424 79.1626 15.4487Z" fill="black"/>
<path d="M91.4579 31.9931C91.0057 31.399 90.6971 30.7625 90.5322 30.0836C90.386 29.4072 90.3677 28.7339 90.4775 28.0636C90.606 27.3959 90.8481 26.7674 91.2038 26.178C91.5701 25.5806 92.0396 25.0637 92.6124 24.6274C93.2064 24.175 93.8347 23.8557 94.4972 23.6695C95.1704 23.4752 95.8446 23.4142 96.5197 23.4866C97.2054 23.5509 97.8494 23.7476 98.4518 24.0766C99.0728 24.4081 99.6094 24.8709 100.062 25.465C100.514 26.0591 100.813 26.6943 100.959 27.3707C101.116 28.039 101.134 28.7123 101.014 29.3906C100.904 30.0609 100.666 30.6947 100.3 31.2922C99.9442 31.8816 99.4694 32.4025 98.8754 32.8549C98.3026 33.2911 97.6796 33.6064 97.0064 33.8007C96.3439 33.9869 95.6697 34.0479 94.984 33.9836C94.3169 33.9218 93.6729 33.7251 93.0519 33.3936C92.4496 33.0647 91.9183 32.5978 91.4579 31.9931ZM93.4323 25.7376C92.8171 26.2062 92.3559 26.767 92.0487 27.42C91.7602 28.0756 91.641 28.7446 91.6913 29.427C91.7522 30.1013 91.9926 30.7143 92.4126 31.266C92.8325 31.8177 93.3646 32.2085 94.0089 32.4385C94.6531 32.6685 95.3348 32.7275 96.0539 32.6155C96.7837 32.4955 97.4508 32.2052 98.0554 31.7447C98.6706 31.2761 99.1278 30.71 99.4269 30.0464C99.7261 29.3827 99.8505 28.7097 99.8003 28.0273C99.75 27.3449 99.5149 26.7279 99.0949 26.1762C98.675 25.6245 98.1375 25.2377 97.4827 25.0158C96.8359 24.8045 96.1529 24.7548 95.4338 24.8668C94.7253 24.9707 94.0582 25.261 93.4323 25.7376Z" fill="black"/>
</svg>
